<?xml version="1.0" standalone="no"?><!DOCTYPE svg PUBLIC "-//W3C//DTD SVG 1.1//EN" "http://www.w3.org/Graphics/SVG/1.1/DTD/svg11.dtd"><svg t="1574229811005" class="icon" viewBox="0 0 1024 1024" version="1.1" xmlns="http://www.w3.org/2000/svg" p-id="1852" xmlns:xlink="http://www.w3.org/1999/xlink" width="200" height="200"><defs><style type="text/css"></style></defs><path d="M896 128c0-3.264-1.344-6.144-1.856-9.28-0.32-1.728 0.128-3.392-0.32-5.12-0.256-0.896-0.96-1.536-1.216-2.432A63.104 63.104 0 0 0 832 64a61.888 61.888 0 0 0-29.376 8.064L384 192H204.8c-2.432 0-4.544 0.96-6.976 1.216C195.84 192.96 194.048 192 192 192c-35.392 0-64 28.48-64 63.616v508.864c0 35.2 28.608 63.616 64 63.616h178.624l444.8 125.824c2.816 0.768 5.504 0.128 8.256 0.512 2.88 0.384 5.376 1.664 8.32 1.664 1.536 0 2.88-0.768 4.352-0.896a60.16 60.16 0 0 0 12.672-2.56c3.904-1.152 7.68-2.048 11.264-3.904 3.648-1.792 6.656-4.16 9.92-6.656 3.328-2.56 6.528-4.928 9.28-8.064 2.624-2.944 4.416-6.272 6.528-9.6a65.92 65.92 0 0 0 5.888-11.84c0.512-1.408 1.536-2.496 1.92-3.968 0.768-2.816 0.192-5.568 0.576-8.32 0.32-2.816 1.6-5.248 1.6-8.192V128z m-485.056 578.56c-3.776-1.728-7.872-2.368-11.968-3.456l-3.008-0.832c-0.576-0.128-1.152 0.064-1.728-0.128-3.456-0.512-6.592-2.048-10.24-2.048H256V320h128.192c7.808 0 14.784-1.92 21.888-3.712 3.712-0.32 7.296 0.32 11.008-0.704L768 215.104v592.384L410.944 706.56z" p-id="1853"></path></svg>