<?xml version="1.0" standalone="no"?><!DOCTYPE svg PUBLIC "-//W3C//DTD SVG 1.1//EN" "http://www.w3.org/Graphics/SVG/1.1/DTD/svg11.dtd"><svg t="1574229921961" class="icon" viewBox="0 0 1024 1024" version="1.1" xmlns="http://www.w3.org/2000/svg" p-id="3697" xmlns:xlink="http://www.w3.org/1999/xlink" width="200" height="200"><defs><style type="text/css"></style></defs><path d="M681.790823 37.345521C681.790823 16.685786 698.476609 0 719.207343 0s37.41952 16.686786 37.41952 37.345521v124.860399c0 20.803733-16.759785 37.489519-37.41952 37.489519s-37.489519-16.757785-37.41752-37.41752V37.345521z m-101.780695 0.361996v106.438635h74.764041V37.708516h-74.764041z m-27.016654 124.498403V37.345521C552.993474 16.685786 536.307688 0 515.575954 0s-37.346521 16.686786-37.346521 37.345521v124.860399c-0.071999 20.731734 16.759785 37.489519 37.346521 37.489519 20.659735 0 37.41752-16.685786 37.41752-37.489519z m-203.56039 0V37.345521C349.432084 16.685786 332.746298 0 312.014564 0c-20.731734 0-37.41752 16.686786-37.41752 37.345521v124.860399c-0.072999 20.731734 16.685786 37.489519 37.41752 37.489519 20.659735 0 37.41852-16.685786 37.41852-37.489519z m434.210433-124.498403v106.438635H917.604799V917.288238H299.517725V774.370071h-192.977526V144.218151h141.112191V37.779516H104.228229C57.995821 37.779516 0.026565 95.748772 0.026565 141.980179v645.246727c0 18.925757 8.739888 35.90154 22.393713 46.953398l218.730195 176.977731c11.629851 9.102883 25.859668 13.364829 39.874489 12.786836h638.745809c46.231407 0 104.200664-57.969257 104.200664-104.200664V141.90718c0-46.230407-57.969257-104.199664-104.055665-104.199663H783.643517z m-407.194779 0v106.438635h74.765041V37.708516h-74.764041z m163.407905 601.364289l-17.337778 17.335777 182.034666 182.034666c0.722991 0.722991 1.58998 1.227984 2.528968 1.444982L847.075704 877.37875c1.949975 0.505994 4.044948 0 5.489929-1.444981 1.443981-1.443981 2.021974-3.539955 1.443982-5.48993l-37.48952-139.993205c-0.289996-0.938988-0.79499-1.877976-1.444981-2.527968L633.040448 545.887l-50.420354 50.420354 182.033666 182.034666-42.763451 42.763452L539.855643 639.071806zM506.410072 271.606517c-35.034551-35.033551-81.554954-53.599313-129.013346-53.599312-23.549698 0-47.315393 4.551942-69.997103 13.942821-2.455969 1.009987-4.189946 3.10596-4.694939 5.705927-0.505994 2.455969 0.359995 5.200933 2.166972 7.00691l112.976551 112.977551-17.769772 65.879156-65.951154 17.625774-112.832553-112.832554c-1.516981-1.516981-3.539955-2.31197-5.634928-2.31197-0.432994 0-0.938988 0.071999-1.443982 0.143998-2.528968 0.505994-4.69594 2.239971-5.634927 4.623941-28.388636 68.551121-12.785836 146.63812 39.585492 199.009448 35.612543 35.612543 82.348944 53.382316 129.085345 53.382316 20.803733 0 41.608466-3.539955 61.473212-10.545865l70.1411 70.1411L619.387623 532.233176 549.319521 462.094075c22.826707-64.289176 8.668889-139.054217-42.907449-190.485558z" p-id="3698"></path></svg>